<?xml version="1.0" encoding="utf-8"?>
<!-- Generator: Adobe Illustrator 16.0.0, SVG Export Plug-In . SVG Version: 6.00 Build 0)  -->
<!DOCTYPE svg PUBLIC "-//W3C//DTD SVG 1.1//EN" "http://www.w3.org/Graphics/SVG/1.1/DTD/svg11.dtd">
<svg version="1.1" id="Layer_1" xmlns="http://www.w3.org/2000/svg" xmlns:xlink="http://www.w3.org/1999/xlink" x="0px" y="0px"
	 width="256px" height="256px" viewBox="0 0 256 256" enable-background="new 0 0 256 256" xml:space="preserve">
<g>
	<path fill="#FFE2AE" d="M153.721,172.042v-9.931c24.58-14.796,41.885-48.562,41.885-76.792c0-37.337-30.267-67.606-67.606-67.606
		c-37.34,0-67.606,30.269-67.606,67.606c0,28.23,17.304,61.996,41.889,76.792v9.931C53.288,181.046,16.832,215.216,16.832,256
		h222.336C239.168,215.219,202.711,181.046,153.721,172.042z"/>
	<path fill="#333745" d="M190.036,28.991C175.197,11.27,152.919,0,128,0C94.055,0,65.007,20.913,53.011,50.557
		c-3.788,9.359-5.877,19.589-5.877,30.312c0,30.571,16.97,57.181,42.006,70.927c-11.931-11.734-21.014-27.888-25.547-44.262
		c0,0,0,0,0-0.002c5.198,5.578,11.666,10.132,19.201,13.177c26.344,10.642,56.169-1.037,68.504-26.137
		c11.544,2.222,23.962-0.574,33.668-8.721c4.087-3.428,7.311-7.499,9.677-11.934c0.626,3.707,0.962,7.517,0.962,11.402
		c0,22.874-11.357,49.369-28.745,66.477c25.036-13.743,42.01-40.35,42.01-70.927C208.87,61.123,201.786,43.032,190.036,28.991z"/>
	<path fill="#95CEB4" d="M182.377,180.734c-5.107,25.356-27.513,44.454-54.377,44.454c-26.866,0-49.265-19.098-54.378-44.454
		C39.731,195.516,16.832,223.68,16.832,256h222.336C239.168,223.68,216.269,195.516,182.377,180.734z"/>
	<path opacity="0.15" d="M238.934,250.637c-0.032-0.39-0.063-0.777-0.1-1.165c-0.165-1.73-0.389-3.446-0.687-5.147
		c-0.043-0.266-0.106-0.526-0.154-0.789c-0.286-1.548-0.632-3.081-1.024-4.598c-0.079-0.311-0.148-0.625-0.233-0.933
		c-0.453-1.656-0.973-3.293-1.543-4.913c-0.122-0.341-0.255-0.678-0.378-1.016c-0.573-1.546-1.188-3.077-1.87-4.587
		c-0.057-0.124-0.106-0.252-0.165-0.377c-0.732-1.6-1.535-3.17-2.385-4.724c-0.182-0.333-0.367-0.665-0.554-0.994
		c-0.871-1.545-1.785-3.069-2.769-4.563c-0.08-0.125-0.17-0.248-0.254-0.375c-0.942-1.413-1.939-2.801-2.978-4.167
		c-0.202-0.269-0.403-0.536-0.61-0.803c-1.105-1.427-2.265-2.824-3.477-4.194c-0.2-0.229-0.408-0.453-0.61-0.679
		c-1.164-1.286-2.358-2.552-3.608-3.784c-0.14-0.14-0.276-0.284-0.415-0.421c-1.351-1.316-2.754-2.597-4.193-3.85
		c-0.271-0.232-0.543-0.465-0.814-0.695c-2.958-2.517-6.109-4.897-9.432-7.13c-0.288-0.19-0.568-0.385-0.861-0.574
		c-1.657-1.091-3.354-2.148-5.097-3.167c-0.196-0.113-0.394-0.221-0.596-0.334c-1.652-0.951-3.344-1.868-5.063-2.748
		c-0.233-0.119-0.463-0.244-0.697-0.361c-1.822-0.92-3.692-1.794-5.592-2.631c-0.131-0.058-0.259-0.128-0.397-0.185
		c0,0.004,0,0.01,0,0.012c-8.874-3.868-18.489-6.837-28.656-8.704v-9.931c6.011-3.62,11.581-8.387,16.577-13.916
		c-1.122,1.238-2.265,2.444-3.438,3.601c25.036-13.743,42.01-40.35,42.01-70.927c0-19.746-7.084-37.837-18.834-51.878
		C175.197,11.27,152.919,0,128,0v256h111.168C239.168,254.195,239.074,252.413,238.934,250.637z"/>
</g>
</svg>
